<?xml version="1.0" encoding="UTF-8"?>
<!-- Generator: Adobe Illustrator 28.2.0, SVG Export Plug-In . SVG Version: 6.00 Build 0)  -->
<svg xmlns="http://www.w3.org/2000/svg" xmlns:xlink="http://www.w3.org/1999/xlink" version="1.1" id="Capa_1" x="0px" y="0px" viewBox="0 0 230 46" style="enable-background:new 0 0 230 46;" xml:space="preserve">
<style type="text/css">
	.st0{fill:#FFFFFF;}
	.st1{fill:#51D1C9;}
</style>
<g>
	<path class="st0" d="M59.4,24.5v-14h6.2v14c0,4.1,2.4,6,5.6,6c3.4,0,5.8-1.9,5.8-6v-14h6v14c0,7.8-4.6,11.8-11.8,11.8   C64,36.3,59.4,32.2,59.4,24.5z M87.3,10.4h6.2v25.2h-6.2V10.4z M97.7,9.8c2.3,0,4.1,1.8,4.1,4.2c0,2.3-1.8,4.2-4.1,4.2   c-2.3,0-4.1-1.9-4.1-4.2C93.5,11.6,95.3,9.8,97.7,9.8z M111,32.6v3h-6.2V1.1h6.2v12.4c1.9-2.5,4.8-3.7,8.4-3.7   c6.1,0,11.9,4.6,11.9,13.3c0,8.7-5.8,13.2-11.9,13.2C115.8,36.3,112.9,35,111,32.6z M117.9,30.5c4,0,6.9-2.7,6.9-7.4   c0-4.8-2.9-7.5-6.9-7.5c-4,0-6.9,2.7-6.9,7.5C111,27.8,113.9,30.5,117.9,30.5z M133.9,23c0-8.7,5.8-13.3,11.9-13.3   c3.6,0,6.5,1.3,8.4,3.8v-3.1h6.2v25.2h-6.2v-3.1c-1.9,2.5-4.8,3.7-8.4,3.7C139.7,36.3,133.9,31.7,133.9,23z M147.2,30.5   c4,0,6.9-2.7,6.9-7.4c0-4.8-2.9-7.5-6.9-7.5c-4,0-6.9,2.7-6.9,7.5C140.3,27.8,143.2,30.5,147.2,30.5z M164.2,28.2h6.4   c0.4,1.9,1.9,2.7,3.6,2.7c1.8,0,3.1-1,3.1-2.5c0-4.9-12.8-0.3-12.8-10.6c0-4.8,4.2-8.1,9.3-8.1c5.1,0,8.9,2.9,9.4,7.5h-6.4   c-0.4-1.3-1.4-2.1-3-2.1c-1.6,0-2.9,0.9-2.9,2.3c0,4.8,12.8,0.2,12.8,10.6c0,4.7-4.2,8.2-9.5,8.2C169,36.3,164.7,33.4,164.2,28.2z    M186.3,23c0-8.7,6.3-13.3,12.7-13.3c6.3,0,12.7,4.5,12.7,13.2v1.9h-19.2c0.7,4,3.5,5.8,6.8,5.8c2.2,0,3.8-0.7,4.8-2h7.2   c-2.2,5.1-7.2,7.5-12,7.5C192.8,36.3,186.3,31.7,186.3,23z M205.2,20.5c-0.6-4.1-3.5-5.7-6.2-5.7c-3,0-5.7,1.9-6.4,5.7H205.2z    M214.5,10.4h6.2v25.2h-6.2V10.4z M224.9,9.8c2.3,0,4.1,1.8,4.1,4.2c0,2.3-1.8,4.2-4.1,4.2c-2.3,0-4.1-1.9-4.1-4.2   C220.7,11.6,222.6,9.8,224.9,9.8z"></path>
	<path class="st1" d="M43.4,30.8c-0.2,0.6-0.5,1.2-0.8,1.8c-0.5,0-1-0.1-1.5-0.2c-1.2-0.2-2.3-0.6-3.5-0.7c-2-0.3-3.9-0.4-5.9-0.2   c-2,0.2-3.9,0.6-5.8,1.3c-4.8,1.8-8.9,4.6-11.7,9l-0.6,0.9c-1.9-0.9-3.6-2-5.2-3.4c0.1-0.2,0.7-0.9,1.3-1.6c3-3.1,6.6-5.4,10.7-6.8   c4.8-1.7,10.1-2.2,15.1-1c0.9,0.2,1.8,0.5,2.7,0.6C39.9,30.9,41.8,31,43.4,30.8z M38,27.3c-2.7,0.1-5.3-0.4-7.9-1.2   c-1.4-0.4-2.8-0.7-4.2-0.8c-1.7-0.2-3.5-0.3-5.2-0.2c-2.2,0.1-4.3,0.4-6.4,0.9c-3.4,0.8-6.6,2-9.6,3.7c-0.7,0.4-1.9,1.1-2.2,1.3   c0.6,1.6,1.4,3.1,2.3,4.4c1.5-1.3,3.3-2.6,5-3.6c1.6-1,3.4-1.8,5.1-2.4c1.6-0.6,3.2-1.1,4.9-1.4c1.3-0.3,2.6-0.4,3.9-0.5   c2.3-0.2,4.6-0.1,6.9,0.3c1.2,0.2,2.5,0.5,3.7,0.8c2.3,0.6,4.7,0.8,7,0.6c1-0.1,2-0.3,2.9-0.5c0.2-0.8,0.4-1.6,0.5-2.4   C43.2,26.5,40.4,27.2,38,27.3z M44.9,21.7c-1,0.3-2,0.6-3,0.9c-1.5,0.4-3.1,0.7-4.6,0.9c-1.9,0.2-3.7,0.2-5.6,0   c-1.6-0.2-3.2-0.5-4.8-1c-2.8-1-5.7-1.7-8.6-2c-2.9-0.3-5.7-0.3-8.6,0.1c-2.5,0.3-5,0.8-7.4,1.5c-0.4,0.1-0.8,0.3-1.2,0.4   c0,0.2,0,0.3,0,0.5c0,1.2,0.1,2.4,0.3,3.5c2.7-1.2,5.8-2.3,8.7-2.9c2.4-0.5,4.8-0.8,7.2-0.9c1.8,0,3.5,0,5.3,0.2   c1.6,0.2,3.1,0.5,4.6,0.9c1.8,0.5,3.6,1.1,5.4,1.4c2.1,0.3,4.2,0.3,6.3,0.1c1.5-0.2,3-0.5,4.5-0.9c0.5-0.1,1.1-0.3,1.6-0.5   c0-0.3,0-0.6,0-0.9C44.9,22.5,44.9,22.1,44.9,21.7z M41.9,33.9c0,0-0.1,0-0.2,0c-2.4-0.4-4.8-0.4-7.3,0c-2.6,0.5-5.1,1.4-7.3,2.8   c-2.7,1.6-4.9,3.7-6.4,6.5c-0.3,0.5-0.5,0.9-0.6,1.5c0.9,0.1,1.9,0.2,2.8,0.2c1.5,0,3-0.2,4.4-0.4c2.9-5.4,7.6-8,13.5-8.8   C41.2,35.1,41.6,34.5,41.9,33.9z M3.7,18.4c1.8-0.3,3.5-0.5,5.3-0.6c3.2-0.1,6.3,0.1,9.4,0.7c1.7,0.3,3.4,0.8,5,1.4   c2,0.7,4,1.3,6.1,1.6c2.4,0.3,4.7,0.3,7.1,0c2.8-0.4,6.3-1.2,7.9-1.9c-0.1-0.6-0.2-1.2-0.4-1.9c0,0,0,0-0.1,0   c-2,0.7-4.1,1.2-6.3,1.6c-2.6,0.5-5.2,0.6-7.9,0.5c-1.5-0.1-3-0.3-4.4-0.6c-1.4-0.3-2.8-0.8-4.2-1.3c-3.1-1.2-6.4-1.9-9.7-2.3   c-2.5-0.3-4.9-0.3-7.4-0.1c-0.6,0-1.7,0.2-2.1,0.2c-0.4,1-0.6,2.1-0.8,3.1C2.2,18.7,2.9,18.5,3.7,18.4z M3.5,12.8   c3,0,5.9,0.2,8.8,0.8c1.6,0.3,3.1,0.7,4.7,1.2c1.2,0.4,2.4,0.8,3.5,1.3c2.3,0.9,4.7,1.5,7.2,1.8c2.7,0.3,5.4,0.2,8.1-0.1   c1.1-0.1,2.3-0.3,3.4-0.6c1.1-0.2,2.1-0.5,3.2-0.8c0.5-0.1,0.9-0.3,1.4-0.4c-0.2-0.6-0.4-1.1-0.6-1.7c-1.5,0.4-3,0.8-4.5,1.1   c-2.1,0.4-4.3,0.7-6.4,0.8c-3.1,0.1-6.1-0.1-9.1-0.8c-1.3-0.3-2.7-0.7-3.9-1.3c-1.9-0.8-3.7-1.5-5.7-2.1C11,11.3,8.5,10.9,6,10.5   c-0.4,0-0.8-0.1-1.1-0.1C4.4,11.2,3.9,12,3.5,12.8C3.5,12.8,3.5,12.8,3.5,12.8z M6.5,8.4C6.5,8.4,6.5,8.5,6.5,8.4   c1.3,0.2,2.4,0.5,3.6,0.8c2.2,0.6,4.3,1.3,6.4,2.3c3.1,1.4,6.3,2.3,9.7,2.7c2.8,0.3,5.7,0.3,8.5,0c2.3-0.2,4.6-0.7,6.8-1.2   c0.5-0.1,0.8-0.2,0.9-0.3c-0.3-0.5-0.5-1-0.8-1.5c-1.3,0.3-2.6,0.5-3.9,0.7c-2.1,0.4-4.3,0.6-6.5,0.6c-3.1,0.1-6.2-0.1-9.2-0.8   c-1.8-0.4-3.6-0.9-5.3-1.7c-2.1-0.9-4.1-1.9-6.2-2.6C9.7,7.2,8.9,7,8.1,6.8C7.5,7.3,7,7.9,6.5,8.4z M9.8,5.4   c2.3,0.9,8.7,4.1,12.1,4.7c2,0.4,4.1,0.7,6.1,0.7c1.7,0,3.4,0.1,5.1-0.1c1.7-0.1,3.4-0.3,5.1-0.6c0.8-0.1,1.5-0.2,2.3-0.4   c-0.4-0.5-0.7-0.9-1.2-1.4c-0.4,0.1-0.8,0.1-1.2,0.2c-1.9,0.3-3.8,0.5-5.8,0.6c-4,0.2-7.9-0.1-11.8-1c-1.7-0.4-3.4-1-5.1-1.7   c-1.4-0.6-2.7-1.4-4-2c0,0-0.1,0-0.1,0C10.8,4.7,10.3,5,9.8,5.4C9.7,5.4,9.8,5.4,9.8,5.4z M13,3.5C15.8,5,18.8,6,21.9,6.7   c1.9,0.4,3.9,0.6,5.9,0.7c2.1,0.1,4.2,0.1,6.3-0.1c1.3-0.1,2.5-0.2,3.9-0.4c-0.5-0.5-1.1-1-1.6-1.4c0,0,0,0,0,0   c-0.5,0-1.1,0.1-1.6,0.1c-2.1,0.1-4.1,0.1-6.2,0c-2.3-0.1-4.6-0.4-6.9-0.8c-2.4-0.5-4.7-1.2-7-2.2c0,0,0,0,0,0   c-0.6,0.3-1.2,0.5-1.8,0.8C12.9,3.5,12.9,3.5,13,3.5z M34.2,4.1c-1-0.6-2-1.1-3.1-1.6c-1.2,0-2.4-0.1-3.6-0.2c-2-0.2-4-0.5-6-1   c-0.3-0.1-0.7-0.2-1-0.2c-1.2,0.1-2.4,0.4-3.5,0.7C22.6,3.8,28.3,4.3,34.2,4.1z"></path>
</g>
</svg>
